<svg width="300" height="172" viewBox="0 0 300 172" fill="none" xmlns="http://www.w3.org/2000/svg">
<path fill-rule="evenodd" clip-rule="evenodd" d="M73.1449 104.596V129.23L69.0737 130.025V101.299L93.5005 96.5473V125.173L81.2871 127.558V103.006L73.1449 104.596Z" fill="white"/>
<path fill-rule="evenodd" clip-rule="evenodd" d="M54.8248 132.771L24.2915 138.769V118.273L28.819 117.389V133.757L42.6118 131.064V77.8681L73.1451 71.9059V92.3657L69.0741 93.1606V76.7931L54.8248 79.5755V132.771Z" fill="white"/>
<path fill-rule="evenodd" clip-rule="evenodd" d="M134.211 117.223V59.935L138.282 59.14V87.7843L158.638 83.8094V112.453L146.425 114.838V90.2858L138.282 91.8758V116.428L134.211 117.223Z" fill="white"/>
<path fill-rule="evenodd" clip-rule="evenodd" d="M113.856 96.647L101.643 99.0319V94.9399L126.07 90.1701V118.814L101.643 123.584V107.216L113.856 104.831V96.647ZM113.856 117.107V108.923L105.714 110.513V118.697L113.856 117.107Z" fill="white"/>
<path fill-rule="evenodd" clip-rule="evenodd" d="M178.994 83.9275L166.781 86.3124V82.2205L191.208 77.4507V106.094L166.781 110.864V94.4962L178.994 92.1113V83.9275ZM178.994 104.387V96.2033L170.852 97.7932V105.977L178.994 104.387Z" fill="white"/>
<path d="M245.951 100.118C261.715 97.0343 274.494 81.6671 274.494 65.7942C274.494 49.9213 261.715 39.5537 245.951 42.6374C230.188 45.7211 217.409 61.0885 217.409 76.9614C217.409 92.8343 230.188 103.202 245.951 100.118Z" fill="#EBFF00"/>
<path fill-rule="evenodd" clip-rule="evenodd" d="M245.775 64.0216L252.846 53.202L258.695 57.3763L253.21 65.7679L268.485 62.4516V68.7501L250.976 72.5517L258.223 84.4383L253.237 88.5437L246.039 76.7396L238.455 88.3437L232.606 84.1694L238.417 75.2782L223.418 78.5348V72.2363L240.97 68.4255L235.207 58.9742L240.194 54.8687L245.775 64.0216Z" fill="#2D384B"/>
</svg>
