<svg width="28" height="33" viewBox="0 0 28 33" fill="none" xmlns="http://www.w3.org/2000/svg">
<path d="M27.7295 32.3106H0.27063V15.7153H27.7036L27.7295 32.3106ZM13.9697 17.0467C11.626 17.0491 9.3192 17.6184 7.25404 18.7043C5.18888 19.7901 3.42919 21.3587 2.13122 23.271C1.9595 23.4652 1.86499 23.7136 1.86499 23.9705C1.86499 24.2275 1.9595 24.476 2.13122 24.6701C3.43752 26.5736 5.20048 28.1338 7.26564 29.2139C9.33068 30.294 11.6347 30.8611 13.9756 30.8653C16.3164 30.8695 18.6226 30.3107 20.6917 29.238C22.7608 28.1652 24.5296 26.6113 25.8429 24.7125C26.0303 24.5074 26.1339 24.2417 26.1339 23.9663C26.1339 23.691 26.0303 23.4253 25.8429 23.22C24.5332 21.3156 22.7647 19.7568 20.6937 18.6815C18.6229 17.6062 16.3134 17.0476 13.9697 17.0551V17.0467Z" fill="white"/>
<path d="M14.0476 14.1634C11.7189 14.1588 9.42613 13.6009 7.36568 12.5375C5.30536 11.4742 3.5389 9.93692 2.21778 8.05785C1.99751 7.82827 1.87488 7.52498 1.87488 7.20985C1.87488 6.89472 1.99751 6.59143 2.21778 6.36184C3.53817 4.48604 5.30572 2.95443 7.36725 1.89994C9.42867 0.84544 11.7217 0.299965 14.047 0.310828C16.3725 0.321691 18.6601 0.888578 20.7112 1.96227C22.7622 3.03598 24.5149 4.58403 25.817 6.47204C26.0037 6.67589 26.1069 6.94015 26.1069 7.21408C26.1069 7.488 26.0037 7.75214 25.817 7.95599C24.5165 9.84883 22.7655 11.4031 20.715 12.4846C18.6646 13.566 16.3762 14.1423 14.0476 14.1634ZM19.1708 7.29455C19.1949 6.28354 18.9109 5.28849 18.3552 4.43625C17.7995 3.58408 16.9973 2.91352 16.0508 2.51015C15.1044 2.10679 14.0568 1.98893 13.0418 2.17164C12.0267 2.35435 11.0902 2.82933 10.3518 3.53594C9.61354 4.24256 9.10689 5.14868 8.89652 6.13879C8.68615 7.12889 8.78172 8.1579 9.17081 9.0946C9.56001 10.0312 10.2252 10.8329 11.0815 11.3974C11.9379 11.962 12.9464 12.2636 13.9784 12.2639C15.3348 12.2643 16.6375 11.7445 17.6079 10.8159C18.5782 9.88714 19.1392 8.62335 19.1708 7.29455Z" fill="white"/>
<path d="M13.9954 28.9778C12.9889 28.9611 12.0102 28.6533 11.1818 28.0931C10.3534 27.5329 9.71243 26.7453 9.33954 25.8293C8.96665 24.9132 8.8782 23.9096 9.08567 22.9445C9.29302 21.9794 9.78686 21.0959 10.5051 20.405C11.2233 19.7141 12.1339 19.2467 13.1225 19.0613C14.1111 18.876 15.1335 18.9811 16.0612 19.3634C16.989 19.7458 17.7808 20.3883 18.337 21.2102C18.8933 22.0321 19.1893 22.9968 19.1877 23.9831C19.1855 24.6463 19.049 25.3024 18.786 25.9135C18.5231 26.5247 18.1391 27.0786 17.6561 27.5432C17.1732 28.0078 16.6009 28.3738 15.9724 28.62C15.3441 28.8663 14.672 28.988 13.9954 28.9778Z" fill="white"/>
</svg>
