<svg width="32" height="33" viewBox="0 0 32 33" fill="none" xmlns="http://www.w3.org/2000/svg">
<path d="M8.75414 16.2965C8.70193 20.2666 12.0873 23.5787 16.048 23.5787C20.0088 23.5787 23.2518 20.2669 23.2518 16.2965C23.2518 12.326 20.0098 9.10986 16.048 9.10986C10.8035 9.10986 8.79225 13.3981 8.75414 16.2965ZM16.048 9.88903C19.5786 9.88903 22.3488 12.7573 22.3488 16.2965C22.3488 19.8357 19.5786 22.6447 16.048 22.6447C12.5175 22.6447 9.65717 19.8357 9.65717 16.2965C9.65717 12.7573 12.5175 9.88903 16.048 9.88903Z" fill="white"/>
<path d="M6.97803 16.2962C6.97803 21.4313 11.2715 25.2662 16.0477 25.2662C20.8239 25.2662 24.9967 21.3191 24.9967 16.2962C24.9967 11.2734 20.788 7.28284 16.0477 7.28284C11.3075 7.28284 6.97803 10.9428 6.97803 16.2962ZM16.0477 8.09661C20.1419 8.09661 24.1361 11.6157 24.1361 16.2962C24.1361 21.008 20.5141 24.4056 16.0477 24.4056C11.3781 24.4056 7.91596 20.8205 7.91596 16.2962C7.91596 11.6001 11.5813 8.09661 16.0477 8.09661Z" fill="white"/>
<path d="M5.22156 16.3008C5.22156 22.4955 10.289 27.0598 16.0507 27.0598C21.8125 27.0598 26.8154 22.3602 26.8154 16.3008C26.8154 10.2414 21.8045 5.49316 16.0507 5.49316C10.2969 5.49316 5.22156 9.8987 5.22156 16.3008ZM16.0507 6.38603C21.2636 6.38603 25.9053 10.6544 25.9053 16.3008C25.9053 21.9849 21.3149 26.1984 15.9269 26.1984C10.5724 26.1984 6.06413 21.7586 6.06413 16.3008C6.06413 10.6356 10.6627 6.38603 16.0507 6.38603Z" fill="white"/>
<path d="M15.4869 11.0773H16.6279V21.4868H15.4869V11.0773Z" fill="white"/>
<path d="M13.1052 11.8951C13.5633 11.531 14.2462 11.3528 14.2462 11.3528V21.182C13.5991 21.0277 13.113 20.6531 13.113 20.6531L13.1052 11.8951Z" fill="white"/>
<path d="M19.0236 11.873C18.5655 11.5089 17.8826 11.3307 17.8826 11.3307V21.1599C18.5297 21.0056 19.0157 20.631 19.0157 20.631L19.0236 11.873Z" fill="white"/>
<path d="M11.8485 13.0859V19.4188C11.8485 19.4188 10.7986 18.3909 10.7986 16.2689C10.7986 14.1469 11.8485 13.0859 11.8485 13.0859Z" fill="white"/>
<path d="M20.1942 13.0416V19.3745C20.1942 19.3745 21.2442 18.3466 21.2442 16.2246C21.2442 14.1026 20.1942 13.0416 20.1942 13.0416Z" fill="white"/>
<path d="M21.3937 5.62035L22.9019 2.72909L21.5001 2.05399L20.3006 5.10998L21.3937 5.62035Z" fill="white"/>
<path d="M19.0439 4.73007L19.9154 1.58771L18.4035 1.22006L17.8683 4.45909L19.0439 4.73007Z" fill="white"/>
<path d="M16.6101 4.35228L16.8202 1.09807L15.2651 1.04753L15.4039 4.32755L16.6101 4.35228Z" fill="white"/>
<path d="M14.0908 4.48992L13.6145 1.26391L12.0833 1.54034L12.9062 4.71848L14.0908 4.48992Z" fill="white"/>
<path d="M11.6623 5.14999L10.5221 2.09481L9.08254 2.68518L10.5516 5.6211L11.6623 5.14999Z" fill="white"/>
<path d="M9.42851 6.30116L7.67584 3.55122L6.39117 4.42905L8.44066 6.9937L9.42851 6.30116Z" fill="white"/>
<path d="M7.51954 7.8575L5.2413 5.52433L4.16341 6.64643L6.69428 8.7375L7.51954 7.8575Z" fill="white"/>
<path d="M5.9366 9.82206L3.22006 8.01806L2.40122 9.34111L5.31406 10.8554L5.9366 9.82206Z" fill="white"/>
<path d="M4.81997 12.0234L1.79125 10.8147L1.26109 12.2776L4.42254 13.1625L4.81997 12.0234Z" fill="white"/>
<path d="M4.17144 14.4512L0.95715 13.9012L0.743983 15.4425L4.0205 15.6481L4.17144 14.4512Z" fill="white"/>
<path d="M4.04115 16.9107L0.782349 17.03L0.889037 18.5823L4.1383 18.1132L4.04115 16.9107Z" fill="white"/>
<path d="M4.43243 19.4031L1.27098 20.2026L1.70055 21.6981L4.77939 20.5585L4.43243 19.4031Z" fill="white"/>
<path d="M5.33423 21.7526L2.40973 23.1953L3.1424 24.568L5.91504 22.81L5.33423 21.7526Z" fill="white"/>
<path d="M6.70496 23.8589L4.14597 25.8802L5.14899 27.0697L7.49367 24.7718L6.70496 23.8589Z" fill="white"/>
<path d="M8.44605 25.601L6.35476 28.1031L7.57994 29.0622L9.40486 26.3332L8.44605 25.601Z" fill="white"/>
<path d="M10.5603 26.9775L9.03974 29.8623L10.4387 30.5434L11.6513 27.4926L10.5603 26.9775Z" fill="white"/>
<path d="M12.9284 27.8837L12.0493 31.024L13.5603 31.3952L14.1033 28.1575L12.9284 27.8837Z" fill="white"/>
<path d="M15.4115 28.27L15.2072 31.5246L16.7624 31.5723L16.6177 28.2925L15.4115 28.27Z" fill="white"/>
<path d="M17.8708 28.1374L18.3367 31.3649L19.8688 31.0934L19.0561 27.9127L17.8708 28.1374Z" fill="white"/>
<path d="M20.3075 27.4828L21.4393 30.541L22.8805 29.9546L21.4194 27.0147L20.3075 27.4828Z" fill="white"/>
<path d="M22.5475 26.3357L24.2936 29.0898L25.5803 28.215L23.537 25.6455L22.5475 26.3357Z" fill="white"/>
<path d="M24.4956 24.7484L26.778 27.0774L27.8539 25.9534L25.3193 23.8669L24.4956 24.7484Z" fill="white"/>
<path d="M26.0423 22.8316L28.753 24.6444L29.5761 23.324L26.6682 21.8002L26.0423 22.8316Z" fill="white"/>
<path d="M27.1858 20.5827L30.2161 21.7873L30.7443 20.3237L27.5817 19.4431L27.1858 20.5827Z" fill="white"/>
<path d="M27.8338 18.1362L31.0496 18.677L31.2584 17.1351L27.9813 16.9388L27.8338 18.1362Z" fill="white"/>
<path d="M27.9537 15.6162L31.2114 15.4711L31.0925 13.9197L27.847 14.4145L27.9537 15.6162Z" fill="white"/>
<path d="M27.5445 13.1329L30.7 12.3101L30.2594 10.8178L27.189 11.98L27.5445 13.1329Z" fill="white"/>
<path d="M26.6271 10.7934L29.5413 9.33015L28.799 7.9627L26.0388 9.74014L26.6271 10.7934Z" fill="white"/>
<path d="M25.2733 8.7358L27.8266 6.70722L26.8201 5.52058L24.482 7.82515L25.2733 8.7358Z" fill="white"/>
<path d="M23.4803 6.96088L25.5518 4.44234L24.3191 3.49292L22.5157 6.23625L23.4803 6.96088Z" fill="white"/>
</svg>
