<?xml version="1.0" encoding="UTF-8"?>
<!DOCTYPE svg PUBLIC "-//W3C//DTD SVG 1.1//EN" "http://www.w3.org/Graphics/SVG/1.1/DTD/svg11.dtd">
<svg version="1.1" xmlns="http://www.w3.org/2000/svg" xmlns:xlink="http://www.w3.org/1999/xlink" x="0" y="0" width="32.5" height="32.5" viewBox="0, 0, 50, 50">
  <g id="Background">
    <rect x="0" y="0" width="50" height="50" fill="#000000" fill-opacity="0"/>
  </g>
  <g id="Layer_1">
    <path d="M49.611,25.611 C49.563,26.307 49.546,27.007 49.461,27.698 C48.561,35.03 45.151,40.906 39.164,45.209 C34.693,48.424 29.646,49.924 24.149,49.734 C17.792,49.514 12.312,47.141 7.716,42.729 C7.674,42.689 7.675,42.526 7.716,42.483 C13.448,36.725 19.185,30.973 24.927,25.227 C25.063,25.102 25.239,25.03 25.423,25.024 C33.486,25.014 41.55,25.011 49.613,25.015 L49.611,25.611 z" fill="#FFFFFF"/>
    <path d="M25.529,0.25 C26.207,0.302 26.887,0.332 27.562,0.405 C31.518,0.835 35.161,2.145 38.491,4.334 C38.514,4.351 38.535,4.369 38.556,4.389 L36.451,6.496 C35.992,6.955 35.537,7.416 35.073,7.869 C35.044,7.888 35.011,7.9 34.976,7.903 C34.941,7.906 34.906,7.9 34.874,7.887 C31.521,5.952 27.912,5.062 24.046,5.217 C15.398,5.567 7.859,11.71 5.785,20.133 C4.501,25.353 5.216,30.311 7.859,34.991 C7.884,35.035 7.885,35.133 7.855,35.162 C6.708,36.321 5.556,37.477 4.401,38.631 C4.39,38.642 4.376,38.651 4.349,38.672 C4.241,38.503 4.131,38.34 4.028,38.173 C1.178,33.551 -0.081,28.529 0.326,23.107 C1.175,11.836 9.539,2.603 20.669,0.642 C21.795,0.444 22.946,0.394 24.084,0.275 L24.317,0.25 L25.529,0.25 z" fill="#FFFFFF"/>
    <path d="M38.039,15.191 C38.041,14.162 38.399,13.165 39.051,12.371 C39.703,11.576 40.61,11.033 41.617,10.833 C42.623,10.633 43.668,10.79 44.573,11.276 C45.477,11.762 46.186,12.547 46.578,13.498 C46.971,14.449 47.022,15.507 46.724,16.492 C46.426,17.477 45.797,18.328 44.944,18.9 C44.091,19.472 43.067,19.73 42.045,19.63 C41.024,19.53 40.069,19.078 39.342,18.351 C38.929,17.936 38.601,17.444 38.377,16.901 C38.153,16.359 38.039,15.778 38.039,15.191 z" fill="#FFFFFF"/>
  </g>
</svg>
