<?xml version="1.0" encoding="UTF-8"?>
<!DOCTYPE svg PUBLIC "-//W3C//DTD SVG 1.1//EN" "http://www.w3.org/Graphics/SVG/1.1/DTD/svg11.dtd">
<svg version="1.1" xmlns="http://www.w3.org/2000/svg" xmlns:xlink="http://www.w3.org/1999/xlink" x="0" y="0" width="32.571" height="32.571" viewBox="0, 0, 316.228, 316.228">
  <g id="Background">
    <rect x="0" y="0" width="316.228" height="316.228" fill="#000000" fill-opacity="0"/>
  </g>
  <g id="Layer_1">
    <path d="M316.228,-0 L316.228,37.36 L161.906,36.408 L161.906,36.547 C177.506,40.927 192.123,48.944 203.746,59.777 C200.395,58.887 196.975,58.161 193.5,57.619 C177.158,44.704 155.885,36.997 133.661,36.997 C81.15,36.997 38.173,79.819 38.173,132.454 C38.173,185.089 80.995,227.904 133.63,227.904 C186.265,227.904 229.081,185.089 229.081,132.454 C229.081,112.095 221.412,91.752 210.88,77.382 C213.395,78.141 216.46,79.433 219.988,81.522 C227.115,92.332 233.731,109.983 239.396,137.059 C245.338,165.465 275.912,301.525 279.216,316.228 L273.683,316.228 L233.924,135.248 L233.754,135.263 C234.234,163.152 221.458,182.087 217.435,188.649 C213.929,194.375 205.549,205.41 189.422,222.534 C160.023,253.756 130.648,285.001 101.254,316.228 L0,316.228 L0,316.227 L94.375,316.227 L187.736,216.947 L187.604,216.837 C172.592,227.423 153.541,233.172 133.004,233.172 C94.939,233.172 61.395,210.592 46.847,182.487 L46.693,182.597 L66.495,249.416 L61.133,249.416 C61.133,249.416 51.305,215.553 42.917,186.04 C36.572,163.7 32.656,147.148 32.71,132.461 C32.886,81.939 72.608,35.619 125.445,32.198 C126.892,32.089 131.387,31.632 138.081,31.626 C178.776,31.604 304.173,32.562 316.221,32.654 L316.221,0.015 L0,-0 L316.228,-0 z" fill="#FFFFFF"/>
    <path d="M249.61,227.641 L251.033,234.11 C233.963,252.55 207.831,266.37 177.405,266.37 C170.889,266.37 164.088,265.736 156.52,264.134 C158.059,262.502 159.53,260.93 160.915,259.46 C165.774,260.32 171.361,260.892 177.096,260.892 C206.686,260.908 232.539,247.59 249.61,227.642 L249.61,227.641 z" fill="#FFFFFF"/>
    <path d="M100.828,232.353 C103.993,233.421 107.483,234.389 111.012,235.154 C118.587,241.709 130.582,249.957 145.416,255.289 C144.178,256.612 142.831,258.044 141.399,259.56 C126.581,253.703 112.087,244.602 100.828,232.353 z" fill="#FFFFFF"/>
    <path d="M291.672,56.581 C291.672,56.581 285.791,117.952 282.363,148.448 C278.076,186.644 272.629,202.499 262.205,219.183 L260.611,211.916 C268.728,197.655 271.049,185.204 272.102,178.65 C275.406,158.229 270.685,130.356 256.455,108.605 C240.514,84.23 212.015,66.3 177.031,66.3 C148.291,66.3 123.32,78.929 105.894,98.638 L101.669,95.295 C120.116,74.356 146.929,61 177.031,61 C208.595,61 236.7,75.184 255.852,98.669 L255.855,98.669 C266.882,112.195 275.819,133.606 277.119,151.52 L277.295,151.52 L286.488,56.581 L291.672,56.581 z" fill="#FFFFFF"/>
    <path d="M76.323,166.746 C78.126,166.746 80.208,166.812 82.003,166.812 C82.63,180.191 85.655,196.813 96.117,214.881 C92.341,213.497 89.501,211.662 87.033,209.712 L87.033,209.716 C79.96,195.331 76.749,180.721 76.323,166.746 z" fill="#FFFFFF"/>
    <path d="M78.381,108.946 C83.489,108.946 89.331,110.525 92.589,111.918 C91.909,113.427 91.352,115.423 91.11,116.669 L90.755,116.8 C88.232,114.007 84.178,111.585 78.173,111.585 C70.551,111.585 61.783,117.752 61.783,130.056 C61.783,142.035 70.721,148.395 78.707,148.395 C85.888,148.395 89.316,145.052 92.403,142.444 L92.642,142.683 L91.767,147.334 C90.35,148.402 85.445,151.459 78.07,151.459 C64.707,151.459 55.607,143.04 55.607,130.21 L55.608,130.203 C55.608,117.443 65.258,108.946 78.381,108.946 z" fill="#FFFFFF"/>
    <path d="M169.331,109.316 L171.272,109.338 C173.787,112.07 198.556,137.699 200.715,139.997 C200.759,137.808 200.781,133.93 200.781,129.488 C200.781,123.592 200.332,114.585 200.071,109.725 C200.674,109.835 201.564,109.945 202.601,109.945 C203.654,109.945 204.511,109.857 205.209,109.725 C204.713,116.001 204.581,126.184 204.581,135.764 C204.581,143.239 204.691,147.48 204.779,151.256 L204.787,151.257 L202.846,151.242 C200.463,148.023 175.554,122.038 173.395,119.74 C173.351,121.937 173.329,126.503 173.329,130.944 C173.329,136.841 173.779,145.84 174.04,150.708 C173.437,150.598 172.546,150.488 171.509,150.488 C170.456,150.488 169.599,150.576 168.909,150.708 C169.396,144.432 169.528,134.249 169.528,124.669 C169.528,117.194 169.418,113.093 169.331,109.316 z" fill="#FFFFFF"/>
    <path d="M124.2,109.747 C124.113,110.305 124.047,110.963 124.047,111.768 C124.047,112.579 124.135,113.415 124.2,113.819 C120.285,113.525 113.305,113.044 105.59,113.044 C105.524,115.598 105.415,126.423 105.415,127.909 C112.418,127.909 116.906,127.607 120.411,127.321 C120.302,127.909 120.236,128.978 120.236,129.566 C120.236,130.162 120.302,131.044 120.411,131.638 C116.318,131.222 107.148,131.097 105.415,131.097 C105.305,133.086 105.399,145.931 105.481,147.014 C109.822,146.948 120.941,146.613 124.988,146.24 C124.923,146.689 124.857,147.617 124.857,148.522 C124.857,149.42 124.901,150.078 124.988,150.705 L124.975,150.703 C122.847,150.594 119.883,150.506 117.074,150.455 C115.457,150.433 113.878,150.411 112.64,150.411 L112.113,150.411 C108.492,150.411 102.936,150.521 99.315,150.705 C99.554,145.536 99.795,140.375 99.795,135.268 L99.795,125.061 C99.795,119.954 99.556,114.793 99.315,109.747 C102.874,109.923 108.376,110.041 111.936,110.041 C115.495,110.041 122.142,109.888 124.2,109.747 z" fill="#FFFFFF"/>
    <path d="M159.192,150.512 C156.774,150.612 157.796,150.524 156.121,150.703 C153.776,147.128 146.263,135.861 141.148,130.607 C140.994,130.607 138.13,130.607 138.13,130.607 L138.13,135.327 C138.13,140.435 138.362,145.596 138.601,150.703 C137.595,150.528 135.769,150.506 135.398,150.506 C135.018,150.506 133.192,150.528 132.187,150.703 C132.426,145.596 132.658,140.435 132.658,135.327 L132.658,125.121 C132.658,120.014 132.426,114.845 132.187,109.745 C134.446,109.921 137.294,110.039 139.553,110.039 C141.813,110.039 144.065,109.745 146.316,109.745 C153.025,109.745 159.177,111.726 159.177,119.193 C159.177,127.094 151.3,129.942 146.788,130.53 C149.698,134.151 160.113,146.842 163.557,150.703 C162.326,150.538 161.083,150.518 159.843,150.506 L159.192,150.512 z M153.396,118.961 C152.634,114.237 148.699,112.507 144.255,112.244 C141.523,112.244 139.743,112.42 138.497,112.538 C138.322,116.871 138.142,120.857 138.142,125.136 L138.142,128.401 C138.73,128.489 141.508,128.467 142.119,128.445 C147.981,128.211 153.062,126.481 153.455,120.021 L153.396,118.961 z" fill="#FFFFFF"/>
  </g>
</svg>
