<svg width="32" height="32" viewBox="0 0 32 32" fill="none" xmlns="http://www.w3.org/2000/svg">
<path d="M15.9999 31.7034C24.8364 30.0185 32 21.622 32 12.9492C32 4.27645 24.8364 -1.38832 15.9999 0.296595C7.16333 1.98151 0 10.3781 0 19.0509C0 27.7236 7.16333 33.3883 15.9999 31.7034Z" fill="#2D384B"/>
<path fill-rule="evenodd" clip-rule="evenodd" d="M15.8997 12.1361L19.96 6L23.2972 8.35398L20.1538 13.1044L28.9033 11.2344V14.8203L18.8786 16.9629L23.0272 23.6849L20.1799 26L16.0493 19.3071L11.6954 25.8868L8.35827 23.5328L11.6889 18.4995L3.0968 20.3359V16.7501L13.1457 14.6023L9.84757 9.25836L12.6948 6.94323L15.8997 12.1361Z" fill="#EBFF00"/>
</svg>
