<svg width="39" height="41" viewBox="0 0 39 41" fill="none" xmlns="http://www.w3.org/2000/svg">
<path d="M19.4998 39.6412C30.2694 37.5344 39 27.0356 39 16.1914C39 5.34717 30.2694 -1.73592 19.4998 0.370856C8.73031 2.47763 0 12.9765 0 23.8207C0 34.6649 8.73031 41.7479 19.4998 39.6412Z" fill="#EBFF00"/>
<path fill-rule="evenodd" clip-rule="evenodd" d="M19.3791 14.9803L24.2103 7.58838L28.2062 10.4402L24.4591 16.1733L34.8947 13.9076V18.2107L22.9324 20.8079L27.884 28.9288L24.4772 31.7336L19.56 23.6691L14.3785 31.5969L10.3826 28.7451L14.3528 22.6707L4.10522 24.8956V20.5925L16.0966 17.989L12.1595 11.5319L15.5663 8.72711L19.3791 14.9803Z" fill="#2D384B"/>
</svg>
